<svg xmlns="http://www.w3.org/2000/svg" width="120.775" height="117.794" viewBox="0 0 120.775 117.794">
  <path id="Pfad_44" data-name="Pfad 44" d="M350.609,334.431a60.394,60.394,0,0,0-19.091,117.69c3.018.558,4.126-1.311,4.126-2.906,0-1.439-.056-6.2-.082-11.243-16.8,3.654-20.345-7.125-20.345-7.125-2.747-6.979-6.705-8.836-6.705-8.836-5.479-3.748.413-3.671.413-3.671,6.064.426,9.257,6.224,9.257,6.224,5.386,9.231,14.127,6.563,17.573,5.02.542-3.9,2.107-6.568,3.834-8.076-13.413-1.526-27.513-6.7-27.513-29.843a23.37,23.37,0,0,1,6.222-16.209c-.627-1.522-2.694-7.664.585-15.982,0,0,5.071-1.622,16.611,6.191a57.253,57.253,0,0,1,30.243,0c11.526-7.813,16.59-6.191,16.59-6.191,3.287,8.318,1.219,14.46.592,15.982a23.325,23.325,0,0,1,6.215,16.209c0,23.194-14.127,28.3-27.574,29.795,2.166,1.875,4.1,5.549,4.1,11.183,0,8.08-.07,14.583-.07,16.572,0,1.608,1.087,3.491,4.148,2.9a60.4,60.4,0,0,0-19.125-117.682Z" transform="translate(-290.221 -334.431)" fill="#fff" fill-rule="evenodd"/>
</svg>
